<svg width="606" height="101" viewBox="0 0 606 101" fill="none" xmlns="http://www.w3.org/2000/svg">
<path d="M29.631 65.392H24.319V80H4.731V21.9H32.702C38.0693 21.9 42.745 22.7853 46.729 24.556C50.713 26.3267 53.784 28.872 55.942 32.192C58.1 35.512 59.179 39.3853 59.179 43.812C59.179 47.962 58.2383 51.5863 56.357 54.685C54.4757 57.7837 51.7643 60.246 48.223 62.072L60.424 80H39.508L29.631 65.392ZM39.425 43.812C39.425 41.654 38.761 39.994 37.433 38.832C36.105 37.6147 34.113 37.006 31.457 37.006H24.319V50.618H31.457C34.113 50.618 36.105 50.037 37.433 48.875C38.761 47.6577 39.425 45.97 39.425 43.812ZM106.582 65.226V80H58.2757V21.9H105.503V36.674H77.5317V43.48H102.1V57.59H77.5317V65.226H106.582ZM163.092 21.9V80H146.99L124.912 53.606V80H105.822V21.9H121.924L144.002 48.294V21.9H163.092ZM221.5 21.9V80H205.398L183.32 53.606V80H164.23V21.9H180.332L202.41 48.294V21.9H221.5ZM270.944 65.226V80H222.638V21.9H269.865V36.674H241.894V43.48H266.462V57.59H241.894V65.226H270.944ZM295.085 65.392H289.773V80H270.185V21.9H298.156C303.523 21.9 308.199 22.7853 312.183 24.556C316.167 26.3267 319.238 28.872 321.396 32.192C323.554 35.512 324.633 39.3853 324.633 43.812C324.633 47.962 323.692 51.5863 321.811 54.685C319.93 57.7837 317.218 60.246 313.677 62.072L325.878 80H304.962L295.085 65.392ZM304.879 43.812C304.879 41.654 304.215 39.994 302.887 38.832C301.559 37.6147 299.567 37.006 296.911 37.006H289.773V50.618H296.911C299.567 50.618 301.559 50.037 302.887 48.875C304.215 47.6577 304.879 45.97 304.879 43.812Z" fill="#333333"/>
<path d="M368.285 21.9C373.652 21.9 378.328 22.7853 382.312 24.556C386.296 26.3267 389.367 28.872 391.525 32.192C393.683 35.512 394.762 39.3853 394.762 43.812C394.762 48.2387 393.683 52.112 391.525 55.432C389.367 58.752 386.296 61.2973 382.312 63.068C378.328 64.8387 373.652 65.724 368.285 65.724H359.902V80H340.314V21.9H368.285ZM367.04 50.618C369.696 50.618 371.688 50.037 373.016 48.875C374.344 47.6577 375.008 45.97 375.008 43.812C375.008 41.654 374.344 39.994 373.016 38.832C371.688 37.6147 369.696 37.006 367.04 37.006H359.902V50.618H367.04ZM476.615 21.9H496.203V80H476.615V21.9ZM554.603 21.9V80H538.501L516.423 53.606V80H497.333V21.9H513.435L535.513 48.294V21.9H554.603ZM568.357 37.089H551.342V21.9H604.96V37.089H587.945V80H568.357V37.089Z" fill="#3F51B5"/>
<path d="M435 36.3332C438.89 36.3332 442.62 37.8784 445.371 40.6289C448.121 43.3795 449.667 47.11 449.667 50.9998C449.667 54.8897 448.121 58.6202 445.371 61.3707C442.62 64.1213 438.89 65.6665 435 65.6665C431.11 65.6665 427.38 64.1213 424.629 61.3707C421.879 58.6202 420.333 54.8897 420.333 50.9998C420.333 47.11 421.879 43.3795 424.629 40.6289C427.38 37.8784 431.11 36.3332 435 36.3332V36.3332ZM402.183 54.6665H394.667V47.3332H402.183C403.833 32.0432 416.043 19.8332 431.333 18.1832V10.6665H438.667V18.1832C453.957 19.8332 466.167 32.0432 467.817 47.3332H475.333V54.6665H467.817C466.167 69.9565 453.957 82.1665 438.667 83.8165V91.3332H431.333V83.8165C416.043 82.1665 403.833 69.9565 402.183 54.6665ZM435 25.3332C428.193 25.3332 421.664 28.0373 416.851 32.8508C412.037 37.6642 409.333 44.1926 409.333 50.9998C409.333 57.8071 412.037 64.3355 416.851 69.1489C421.664 73.9623 428.193 76.6665 435 76.6665C441.807 76.6665 448.336 73.9623 453.149 69.1489C457.962 64.3355 460.667 57.8071 460.667 50.9998C460.667 44.1926 457.962 37.6642 453.149 32.8508C448.336 28.0373 441.807 25.3332 435 25.3332V25.3332Z" fill="#333333"/>
</svg>
